Coordinates
version=1
nRows=29
nColumns=24
inDegrees=yes

Units are S.I. units (second, meters, Newtons, ...)
Angles are in degrees.

endheader
time	pelvis_tilt	pelvis_list	pelvis_rotation	pelvis_tx	pelvis_ty	pelvis_tz	hip_flexion_r	hip_adduction_r	hip_rotation_r	knee_angle_r	ankle_angle_r	subtalar_angle_r	mtp_angle_r	hip_flexion_l	hip_adduction_l	hip_rotation_l	knee_angle_l	ankle_angle_l	subtalar_angle_l	mtp_angle_l	lumbar_extension	lumbar_bending	lumbar_rotation
      2.41000000	      8.54960514	      6.01772582	     -0.80054942	      0.71883350	      0.93388951	     -0.03285571	    -11.30094649	     -8.60574061	     -1.56478742	    -50.15801948	      4.76566369	     -3.63098183	     53.78783433	      7.09844974	      8.63864649	     -8.61410457	    -13.49913709	      8.27904737	    -10.24885215	     25.14760581	    -14.35463685	     -8.31893317	      1.51740284
      2.41500000	      8.21698264	      6.06085817	     -0.80739269	      0.72384853	      0.93378929	     -0.03365787	     -9.91830534	     -8.73028617	     -1.28925501	    -51.95341727	      3.72282671	     -3.98355008	     53.68103132	      7.34399259	      8.71446350	     -8.60259893	    -13.96858251	      9.01475392	     -9.97395663	     23.94229995	    -14.05256230	     -8.37298274	      1.49330361
      2.42000000	      7.98333065	      5.99687970	     -0.90569439	      0.72886674	      0.93392409	     -0.03425948	     -8.65292473	     -8.71332144	     -0.88494218	    -53.60125993	      2.76662193	     -4.35053466	     53.42362977	      7.42858983	      8.66500829	     -8.69410723	    -14.32549259	      9.63774546	     -9.80673523	     23.25953693	    -13.84440232	     -8.32584677	      1.57765871
      2.42500000	      7.76254706	      5.95120948	     -0.95954604	      0.73387794	      0.93407678	     -0.03491270	     -7.42677586	     -8.71107258	     -0.59578109	    -55.17422037	      2.04640781	     -4.74109606	     52.94004918	      7.48433961	      8.64173888	     -8.73318548	    -14.65877107	     10.26234674	     -9.59090851	     22.42205539	    -13.65587391	     -8.28796849	      1.60280318
      2.43000000	      7.65385209	      5.94088242	     -1.01994516	      0.73893108	      0.93441318	     -0.03555574	     -6.35739401	     -8.75545440	     -0.39258370	    -56.64890577	      1.68594628	     -5.07982388	     51.07806346	      7.37177139	      8.66746759	     -8.74487042	    -14.91954240	     11.06332338	     -9.21491087	     19.42840461	    -13.58841533	     -8.28867452	      1.63526256
      2.43500000	      7.63620698	      5.89467836	     -1.09555215	      0.74403152	      0.93496595	     -0.03611740	     -5.42736177	     -8.74614102	     -0.20570853	    -57.95864875	      1.34276318	     -5.66120759	     50.95205074	      7.10072024	      8.65591652	     -8.77735821	    -15.04306297	     11.47243213	     -9.10059038	     19.38784944	    -13.61541581	     -8.25443876	      1.66081439
      2.44000000	      7.39189750	      5.75447180	     -1.09796070	      0.74892154	      0.93514919	     -0.03673416	     -4.22697380	     -8.60580103	     -0.03792296	    -59.27515055	      1.36639106	     -6.02613612	     50.32107412	      7.17589879	      8.52601212	     -8.78822210	    -15.36888085	     12.09589464	     -8.83761275	     18.99248289	    -13.41491072	     -8.09941776	      1.63242151
      2.44500000	      7.25272692	      5.62018105	     -1.15251502	      0.75388869	      0.93555237	     -0.03724244	     -3.16516168	     -8.46623820	      0.12664984	    -60.47370387	      1.53335743	     -6.50145991	     49.17138149	      7.05688649	      8.41164682	     -8.80446973	    -15.53487315	     12.62583608	     -8.64657975	     18.30212032	    -13.31517325	     -7.96246391	      1.65719180
      2.45000000	      7.19987116	      5.48696068	     -1.21822930	      0.75886670	      0.93611755	     -0.03772994	     -2.22343355	     -8.32914023	      0.25007930	    -61.56623446	      1.87646719	     -6.97962653	     47.70277230	      6.80221664	      8.30940592	     -8.79480246	    -15.61681076	     13.10054538	     -8.51098650	     17.43721346	    -13.31058073	     -7.82629950	      1.69106329
      2.45500000	      7.14938937	      5.39442065	     -1.23354710	      0.76389283	      0.93671204	     -0.03829923	     -1.31918008	     -8.25407570	      0.25675490	    -62.57171042	      2.41536993	     -7.37678939	     46.00332126	      6.50518955	      8.26173389	     -8.71211192	    -15.62559445	     13.54801244	     -8.25781540	     16.45009569	    -13.30757487	     -7.72331178	      1.66259792
      2.46000000	      7.24837845	      5.27732554	     -1.31691415	      0.76891448	      0.93756573	     -0.03875400	     -0.59632790	     -8.14363997	      0.30208871	    -63.43452889	      2.89973647	     -8.01335022	     45.82661727	      6.00530502	      8.19930002	     -8.66929186	    -15.53721574	     13.80001598	     -8.33906001	     16.37457829	    -13.46644881	     -7.60463773	      1.68586204
      2.46500000	      7.16791089	      5.11583649	     -1.36617517	      0.77388127	      0.93816086	     -0.03919889	      0.33387726	     -7.96370039	      0.33367538	    -64.29151238	      3.65579205	     -8.37676181	     43.30017318	      5.72440346	      8.07581775	     -8.61363177	    -15.50940431	     14.26390639	     -8.18984963	     15.28508295	    -13.42652609	     -7.43193780	      1.70134276
      2.47000000	      7.21243318	      4.96232300	     -1.41227172	      0.77885468	      0.93897355	     -0.03962907	      1.08831267	     -7.79383069	      0.31361692	    -64.99638384	      4.24968122	     -9.06609719	     43.16104505	      5.27477912	      7.97158004	     -8.53994029	    -15.40676200	     14.51054206	     -8.19789939	     15.25127563	    -13.52935692	     -7.26817374	      1.69634880
      2.47500000	      7.06607612	      4.75228032	     -1.42279873	      0.78375726	      0.93948969	     -0.04004244	      2.06258882	     -7.54077529	      0.27942633	    -65.68383778	      4.96313297	     -9.57871925	     41.72290923	      5.07444355	      7.78671971	     -8.48201622	    -15.39621517	     14.93889891	     -8.01588119	     14.84691460	    -13.42362924	     -7.03721682	      1.68056715
      2.48000000	      7.16143395	      4.61705395	     -1.51323700	      0.78877543	      0.94041835	     -0.04040281	      2.74084199	     -7.38542768	      0.26123523	    -66.22404066	      5.53834683	    -10.32199241	     41.42550701	      4.48917619	      7.71862516	     -8.40142541	    -15.12291519	     15.06983669	     -8.15833549	     14.75408930	    -13.56952670	     -6.89928996	      1.72489440
      2.48500000	      7.10746863	      4.40336599	     -1.50532747	      0.79371466	      0.94111823	     -0.04080168	      3.56038275	     -7.12850261	      0.15057128	    -66.72362946	      6.34539879	    -10.73966008	     38.86749143	      4.13868370	      7.53963904	     -8.30235633	    -15.01946724	     15.44148031	     -7.97601865	     14.16258227	    -13.56308474	     -6.66226834	      1.69591120
      2.49000000	      7.17665249	      4.25439573	     -1.60047840	      0.79871982	      0.94201342	     -0.04111156	      4.24595033	     -6.94766144	      0.11891692	    -67.11693952	      6.90088603	    -11.40933702	     38.70558639	      3.56669276	      7.45571242	     -8.23762831	    -14.71661929	     15.55058392	     -8.13719291	     14.10413193	    -13.67661691	     -6.51228577	      1.74446025
      2.49500000	      7.23607737	      4.03507192	     -1.58367226	      0.80372196	      0.94292049	     -0.04151149	      4.88292490	     -6.68940303	     -0.05389669	    -67.40407925	      7.54887753	    -11.95867899	     36.83552880	      3.02715553	      7.28340004	     -8.12434409	    -14.48185450	     15.81104416	     -8.02473591	     13.73939551	    -13.79125773	     -6.26440416	      1.70164187
      2.50000000	      7.25256429	      3.86208594	     -1.68348888	      0.80870312	      0.94374724	     -0.04177240	      5.60582944	     -6.46481314	     -0.08562715	    -67.65807493	      8.04980509	    -12.56320734	     36.67426992	      2.50504123	      7.16955082	     -8.08087779	    -14.16369915	     15.91633723	     -8.17227545	     13.69666034	    -13.84300584	     -6.08863220	      1.78599479
      2.50500000	      7.36835282	      3.64365569	     -1.68093444	      0.81374842	      0.94474035	     -0.04210408	      6.14407920	     -6.19641971	     -0.25690955	    -67.78552505	      8.64645064	    -13.06262891	     34.92561239	      1.86626838	      6.99730622	     -8.00542548	    -13.85687946	     16.12883824	     -8.04181050	     13.44879024	    -14.01076277	     -5.84940680	      1.76427489
      2.51000000	      7.36979909	      3.44769728	     -1.74166164	      0.81871899	      0.94553906	     -0.04239388	      6.84174097	     -5.94106988	     -0.34327818	    -67.88585749	      9.06433824	    -13.63116701	     34.73848355	      1.35131094	      6.85860962	     -7.92956187	    -13.52279473	     16.21999617	     -8.16276970	     13.41141391	    -14.04778036	     -5.63890849	      1.83255626
      2.51500000	      7.42507199	      3.21878162	     -1.75057903	      0.82373433	      0.94643459	     -0.04270993	      7.42560684	     -5.65696585	     -0.51634202	    -67.86736269	      9.48840604	    -14.19804582	     34.47862384	      0.78053105	      6.67812977	     -7.87252421	    -13.20854981	     16.33676096	     -8.22011489	     13.38693328	    -14.14346043	     -5.38590032	      1.86277605
      2.52000000	      7.56302900	      2.99494117	     -1.78532306	      0.82879447	      0.94743952	     -0.04294311	      7.89890122	     -5.36524586	     -0.65522989	    -67.78898909	     10.07667579	    -14.49105572	     32.20867042	      0.08166040	      6.49581384	     -7.87379668	    -12.82675869	     16.50827779	     -8.04792993	     13.15845140	    -14.32683503	     -5.14966584	      1.89761289
      2.52500000	      7.62906533	      2.73691600	     -1.76733286	      0.83380916	      0.94834465	     -0.04329967	      8.42305305	     -5.04910462	     -0.85969230	    -67.61159723	     10.44729691	    -14.94390528	     32.09402854	     -0.51157798	      6.28481542	     -7.78884926	    -12.49268576	     16.60882541	     -8.09962892	     13.14664253	    -14.43498204	     -4.85290273	      1.91356239
      2.53000000	      7.75827958	      2.46350745	     -1.75393199	      0.83886664	      0.94933799	     -0.04359730	      8.84439004	     -4.71266423	     -1.07616671	    -67.33892970	     10.80672113	    -15.38909965	     31.87840994	     -1.19165319	      6.05009635	     -7.74967784	    -12.12978100	     16.71178162	     -8.06699571	     13.14013966	    -14.60827377	     -4.54767308	      1.95228111
      2.53500000	      8.02560052	      2.18782610	     -1.79573631	      0.84402567	      0.95052077	     -0.04379023	      9.08271190	     -4.36898696	     -1.24278377	    -66.97900963	     11.26076841	    -15.60469572	     30.83843046	     -2.07035544	      5.80726865	     -7.86856417	    -11.68686129	     16.88479700	     -7.73444926	     13.09739200	    -14.92086932	     -4.25646619	      2.02937452
      2.54000000	      8.19408746	      1.89764051	     -1.76422168	      0.84910074	      0.95153712	     -0.04409947	      9.40920744	     -4.01727969	     -1.49023568	    -66.55263777	     11.62619672	    -15.94243863	     30.17192904	     -2.80131378	      5.55189917	     -7.84039575	    -11.31000703	     16.99228154	     -7.65176519	     13.04481933	    -15.13558692	     -3.92763014	      2.04962252
      2.54500000	      8.31529493	      1.60011916	     -1.69785823	      0.85414340	      0.95246139	     -0.04445508	      9.76701062	     -3.66387815	     -1.78081953	    -66.05756982	     11.92728449	    -16.30407474	     29.84607094	     -3.45635082	      5.28123907	     -7.77789764	    -10.97801066	     17.11392819	     -7.55710911	     13.03447472	    -15.30042590	     -3.58024508	      2.05747379
      2.55000000	      8.51015965	      1.27457895	     -1.66788233	      0.85924769	      0.95347870	     -0.04474071	     10.00921460	     -3.27697860	     -2.04500873	    -65.46525778	     12.25442731	    -16.55041402	     29.44972726	     -4.21090902	      4.97802128	     -7.82496421	    -10.61750547	     17.25331402	     -7.36782291	     13.02601320	    -15.53752599	     -3.21145770	      2.11231179
